<?xml version="1.0" encoding="iso-8859-1"?>
<!-- Generator: Adobe Illustrator 19.0.0, SVG Export Plug-In . SVG Version: 6.00 Build 0)  -->
<svg version="1.1" id="Capa_1" xmlns="http://www.w3.org/2000/svg" xmlns:xlink="http://www.w3.org/1999/xlink" x="0px" y="0px"
	 viewBox="0 0 366.722 366.722" style="enable-background:new 0 0 366.722 366.722;" xml:space="preserve">
<g>
	<g>
		<path d="M307.321,3.282L307.321,3.282c-6.429-2.232-13.195-3.341-20-3.28c-17.44,0-48.56,7.36-61.28,56.88
			c-5.961,29.855-9.148,60.198-9.52,90.64c-0.8,16.64-1.6,33.84-3.04,49.36c-2.871,28.125-7.196,56.083-12.96,83.76
			c-2.059,8.738-3.477,17.615-4.24,26.56c0.044,32.81,26.63,59.396,59.44,59.44c35.28,0,50.56-32.4,58.96-56.8
			c1.2-3.52,2.72-8,4.48-12.64c15.36-42.8,47.28-131.92,47.36-205.28C366.681,33.762,329.561,11.442,307.321,3.282z
			 M304.201,291.842h-0.08l-4.56,12.8c-11.12,32-24,46-43.84,46c-23.991,0-43.44-19.449-43.44-43.44
			c0.888-7.883,2.224-15.709,4-23.44c5.876-28.205,10.282-56.697,13.2-85.36c1.12-12.16,1.92-25.2,2.56-38.16l55.28-64.88
			l45.12,109.92C322.681,240.082,311.321,271.362,304.201,291.842z M338.841,179.122l-41.28-100.64v-32.48c0-4.418-3.582-8-8-8
			s-8,3.582-8,8v31.04l-48,56.96c0.423-24.567,3.101-49.043,8-73.12c9.52-37.12,30.16-44.88,45.76-44.88
			c4.87-0.038,9.711,0.747,14.32,2.32c18.24,6.72,48.88,25.2,48.8,73.68c-0.61,29.376-4.474,58.595-11.52,87.12H338.841z"/>
	</g>
</g>
<g>
	<g>
		<path d="M166.201,280.722c-5.817-27.675-10.197-55.632-13.12-83.76c-1.44-15.52-2.32-32.72-3.04-49.36
			c-0.368-30.442-3.555-60.785-9.52-90.64c-13.2-49.6-43.92-56.96-61.2-56.96c-6.751-0.04-13.461,1.069-19.84,3.28
			c-22.16,8-59.36,30.48-59.28,88.72c0,73.28,32,162.4,47.36,205.28c1.76,4.88,3.28,9.12,4.48,12.64c8.4,24,24,56.8,58.96,56.8
			c32.81-0.044,59.396-26.63,59.44-59.44C169.677,298.337,168.26,289.46,166.201,280.722z M16.041,92.002
			c0-48.56,30.48-66.96,48.72-73.68c4.686-1.597,9.61-2.382,14.56-2.32c16,0,36.32,8,45.76,44.88c4.903,24.076,7.581,48.553,8,73.12
			l-48-56.96v-31.04c0-4.418-3.582-8-8-8s-8,3.582-8,8v32.4l-41.36,100.72C20.621,150.603,16.704,121.385,16.041,92.002z
			 M110.921,350.722L110.921,350.722c-19.6,0-32.72-13.76-43.84-46.08l-4.56-12.8c-7.2-20.48-18.56-51.76-28.16-86.64l44.96-109.84
			l55.04,65.04c0.64,12.96,1.44,26,2.56,38.16c2.917,28.663,7.323,57.155,13.2,85.36c1.776,7.731,3.112,15.557,4,23.44
			C154.077,331.229,134.787,350.591,110.921,350.722z"/>
	</g>
</g>
<g>
</g>
<g>
</g>
<g>
</g>
<g>
</g>
<g>
</g>
<g>
</g>
<g>
</g>
<g>
</g>
<g>
</g>
<g>
</g>
<g>
</g>
<g>
</g>
<g>
</g>
<g>
</g>
<g>
</g>
</svg>
