<?xml version="1.0" encoding="iso-8859-1"?>
<!-- Generator: Adobe Illustrator 19.0.0, SVG Export Plug-In . SVG Version: 6.00 Build 0)  -->
<svg version="1.1" id="Capa_1" xmlns="http://www.w3.org/2000/svg" xmlns:xlink="http://www.w3.org/1999/xlink" x="0px" y="0px"
	 viewBox="0 0 417.085 417.085" style="enable-background:new 0 0 417.085 417.085;" xml:space="preserve">
<g>
	<g>
		<path d="M414.78,134.669c-0.153-0.155-0.313-0.304-0.478-0.447l-94-80.08c-1.179-1.003-2.625-1.642-4.16-1.84l-40-5.2l6.08-8
			c2.776-3.437,2.241-8.474-1.196-11.25c-0.08-0.065-0.162-0.128-0.244-0.19l-19.44-12.4c0,0,0-0.4,0-0.56
			c-1.323-2.778-4.123-4.551-7.2-4.56h-87.6h-0.96h-0.8c-0.935,0.187-1.829,0.539-2.64,1.04l-25.36,16.48
			c-3.708,2.403-4.765,7.357-2.362,11.064c0.137,0.212,0.285,0.417,0.442,0.616l6.08,8l-40,5.2c-1.536,0.198-2.981,0.837-4.16,1.84
			l-94,80c-3.349,2.882-3.728,7.933-0.847,11.282c0.142,0.165,0.291,0.325,0.447,0.478l72.64,72v180.8c0,4.418,3.582,8,8,8h251.04
			c4.418,0,8-3.582,8-8v-180.96l72.64-72C417.848,142.88,417.883,137.815,414.78,134.669z M254.623,30.142l9.76,6.32l-37.68,48
			l-5.52-13.44c0,0,0.48,0,0.72-0.56L254.623,30.142z M237.183,26.142l-25.44,31.44h-1.2c-0.584-0.074-1.176-0.074-1.76,0
			l-25.44-31.44H237.183z M216.782,101.742v49.2h-12.8v-54.4l5.6-11.36L216.782,101.742z M164.863,28.782l33.76,41.6l-7.28,14.72
			l-38.56-48.8L164.863,28.782z M341.742,195.822v-28.72c0-4.418-3.582-8-8-8s-8,3.582-8,8v77.04c-0.071,0.611-0.071,1.229,0,1.84
			v144.96H91.503v-224c0-4.418-3.582-8-8-8s-8,3.582-8,8v28.32l-55.2-54.72l85.52-72.96l46.96-5.92l34,43.44
			c0.356,0.441,0.759,0.844,1.2,1.2v52.64c0,4.418,3.582,8,8,8h28.8c4.418,0,8-3.582,8-8v-56l32-41.28l46.88,6.16l85.52,72.96
			L341.742,195.822z"/>
	</g>
</g>
<g>
	<g>
		<path d="M302.062,170.062h-51.92c-4.418,0-8,3.582-8,8v61.68c0,9.247,7.473,16.756,16.72,16.8h34.4
			c9.216-0.044,16.676-7.504,16.72-16.72v-61.76C309.983,173.675,306.449,170.106,302.062,170.062z M294.063,239.822
			c0,0.398-0.322,0.72-0.72,0.72h-34.4c-0.398,0-0.72-0.322-0.72-0.72v-53.76h35.92L294.063,239.822z"/>
	</g>
</g>
<g>
</g>
<g>
</g>
<g>
</g>
<g>
</g>
<g>
</g>
<g>
</g>
<g>
</g>
<g>
</g>
<g>
</g>
<g>
</g>
<g>
</g>
<g>
</g>
<g>
</g>
<g>
</g>
<g>
</g>
</svg>
