<?xml version="1.0" encoding="iso-8859-1"?>
<!-- Generator: Adobe Illustrator 19.0.0, SVG Export Plug-In . SVG Version: 6.00 Build 0)  -->
<svg version="1.1" id="Capa_1" xmlns="http://www.w3.org/2000/svg" xmlns:xlink="http://www.w3.org/1999/xlink" x="0px" y="0px"
	 viewBox="0 0 433.808 433.808" style="enable-background:new 0 0 433.808 433.808;" xml:space="preserve">
<g>
	<g>
		<path d="M293.248,271.418c-2.01-0.015-3.952,0.728-5.44,2.08c-11.84,10.64-22.08,16-30.32,16c-18.16,0-32-27.04-49.12-61.28
			c-3.04-6-6.16-12.24-9.44-18.48c-32-61.52-122.64-163.28-126.48-168c-2.497-2.829-6.631-3.53-9.92-1.68
			c-71.04,40-62.4,136-62,139.76h0.4l24,207.92c0.488,4.04,3.931,7.069,8,7.04h38.64c4.418,0,8-3.582,8-8v-163.84
			c53.44,45.28,86.64,117.52,91.36,128v35.68c0,4.418,3.582,8,8,8h246.88c4.418,0,8-3.582,8-8v-37.6
			C430.128,274.378,298.848,271.498,293.248,271.418z M63.808,378.778h-23.52l-22.56-189.36c16.527,4.23,32.143,11.441,46.08,21.28
			V378.778z M16.128,172.618h-0.32c-0.24-19.52,1.84-83.52,49.12-114.88c18.8,21.52,92.56,107.2,120,159.36
			c3.28,6.24,6.4,12.4,9.36,18.32c19.76,39.12,35.44,70.08,63.44,70.08c11.76,0,24.4-5.92,38.56-18
			c17.84,0.8,108.56,7.12,120.56,53.92h-232C172.368,314.698,111.968,191.498,16.128,172.618z M417.808,378.778h-230.64v-21.36
			h230.64V378.778z"/>
	</g>
</g>
<g>
</g>
<g>
</g>
<g>
</g>
<g>
</g>
<g>
</g>
<g>
</g>
<g>
</g>
<g>
</g>
<g>
</g>
<g>
</g>
<g>
</g>
<g>
</g>
<g>
</g>
<g>
</g>
<g>
</g>
</svg>
