<?xml version="1.0" encoding="iso-8859-1"?>
<!-- Generator: Adobe Illustrator 19.0.0, SVG Export Plug-In . SVG Version: 6.00 Build 0)  -->
<svg version="1.1" id="Capa_1" xmlns="http://www.w3.org/2000/svg" xmlns:xlink="http://www.w3.org/1999/xlink" x="0px" y="0px"
	 viewBox="0 0 409.369 409.369" style="enable-background:new 0 0 409.369 409.369;" xml:space="preserve">
<g>
	<g>
		<path d="M295.322,163.049c24.024-50.751,21.966-109.997-5.52-158.96c-2.337-3.75-7.271-4.894-11.021-2.557
			c-0.199,0.124-0.392,0.256-0.579,0.397l-73.52,55.68l-73.44-56c-3.53-2.657-8.546-1.949-11.203,1.581
			c-0.141,0.187-0.273,0.38-0.397,0.579c-27.596,49.047-29.654,108.44-5.52,159.28c-12.08,17.92-56,93.2-48.88,238.32
			c0,4.418,3.582,8,8,8h262.96c4.418,0,8-3.582,8-8C350.922,256.329,307.402,180.969,295.322,163.049z M129.082,20.409l0.08-0.32
			l70.72,53.6c2.861,2.174,6.819,2.174,9.68,0l70.72-53.6c20.603,42.93,20.896,92.831,0.8,136h-152.8
			C108.286,113.009,108.58,63.25,129.082,20.409z M127.482,171.849h30c-6.794,25.498-21.813,96.201-19.924,221.12H80.842
			C76.202,257.929,117.482,186.889,127.482,171.849z M255.806,392.969H153.562c-2-130.64,15.12-201.92,20.56-221.12h61.12
			C240.677,191.353,257.853,262.534,255.806,392.969z M328.531,392.969h-56.729c1.92-125.12-13.12-195.92-19.92-221.12h29.92
			C291.874,187.276,333.095,258.138,328.531,392.969z"/>
	</g>
</g>
<g>
</g>
<g>
</g>
<g>
</g>
<g>
</g>
<g>
</g>
<g>
</g>
<g>
</g>
<g>
</g>
<g>
</g>
<g>
</g>
<g>
</g>
<g>
</g>
<g>
</g>
<g>
</g>
<g>
</g>
</svg>
