<?xml version="1.0" encoding="iso-8859-1"?>
<!-- Generator: Adobe Illustrator 19.0.0, SVG Export Plug-In . SVG Version: 6.00 Build 0)  -->
<svg version="1.1" id="Capa_1" xmlns="http://www.w3.org/2000/svg" xmlns:xlink="http://www.w3.org/1999/xlink" x="0px" y="0px"
	 viewBox="0 0 361.844 361.844" style="enable-background:new 0 0 361.844 361.844;" xml:space="preserve">
<g>
	<g>
		<path d="M329.286,36.245l-81.6-24.56l-38.4-11.6c-0.743-0.105-1.497-0.105-2.24,0h-52.16c-0.769-0.113-1.551-0.113-2.32,0
			l-19.6,5.84l-18.8,5.68l-81.6,24.56c-3.498,1.056-5.836,4.349-5.68,8v289.68c0,4.418,3.582,8,8,8h36.64v12c0,4.418,3.582,8,8,8
			h62.64c14.079-1.015,27.56-6.102,38.8-14.64c11.413,8.611,25.094,13.7,39.36,14.64h62c4.418,0,8-3.582,8-8v-12h36.64
			c4.418,0,8-3.582,8-8v-290C334.941,40.341,332.639,37.261,329.286,36.245z M213.766,18.165l6.8,2.08l13.44,4.08l-10.88,22.16
			c-1.832,3.75-0.474,8.278,3.12,10.4l16,9.6l-47.12,100.64L213.766,18.165z M132.966,22.805l15.52-4.72l18.64,148.96l-47.84-100.64
			l16-9.6c3.594-2.122,4.952-6.65,3.12-10.4l-10.88-22.16L132.966,22.805z M172.966,331.685c-5.28,9.68-25.12,13.6-31.36,14.16h-54
			v-215.28c0-4.418-3.582-8-8-8s-8,3.582-8,8v195.28h-28.64v-276l69.44-21.04l8.8,17.84l-16,9.6c-3.579,2.091-4.968,6.57-3.2,10.32
			l70.96,151.12L172.966,331.685z M164.006,15.445h34l-17.04,136L164.006,15.445z M318.966,325.845h-28.64v-195.28
			c0-4.418-3.582-8-8-8s-8,3.582-8,8v215.28h-53.36c-6.8-0.56-26.72-4.48-32-14.16v-30.16h9.36c4.418,0,8-3.582,8-8s-3.582-8-8-8
			h-9.36v-34.96h9.36c4.418,0,8-3.582,8-8s-3.582-8-8-8h-9.36v-16.88l71.2-151.04c1.768-3.75,0.379-8.229-3.2-10.32l-16-9.6
			l8.56-17.92l69.44,20.96V325.845z"/>
	</g>
</g>
<g>
	<g>
		<path d="M145.606,247.525h-36.64c-8.837,0-16,7.163-16,16v6c0,8.837,7.163,16,16,16h36.64c8.837,0,16-7.163,16-16v-6
			C161.606,254.688,154.442,247.525,145.606,247.525z M145.606,269.525h-36.64v-6h36.64V269.525z"/>
	</g>
</g>
<g>
	<g>
		<path d="M252.966,247.525h-36.64c-8.837,0-16,7.163-16,16v6c0,8.837,7.163,16,16,16h36.64c8.837,0,16-7.163,16-16v-6
			C268.966,254.688,261.802,247.525,252.966,247.525z M252.966,269.525h-36.64v-6h36.64V269.525z"/>
	</g>
</g>
<g>
</g>
<g>
</g>
<g>
</g>
<g>
</g>
<g>
</g>
<g>
</g>
<g>
</g>
<g>
</g>
<g>
</g>
<g>
</g>
<g>
</g>
<g>
</g>
<g>
</g>
<g>
</g>
<g>
</g>
</svg>
