<?xml version="1.0" encoding="iso-8859-1"?>
<!-- Generator: Adobe Illustrator 19.0.0, SVG Export Plug-In . SVG Version: 6.00 Build 0)  -->
<svg version="1.1" id="Capa_1" xmlns="http://www.w3.org/2000/svg" xmlns:xlink="http://www.w3.org/1999/xlink" x="0px" y="0px"
	 viewBox="0 0 512 512" style="enable-background:new 0 0 512 512;" xml:space="preserve">
<g>
	<g>
		<circle cx="255.995" cy="64" r="64"/>
	</g>
</g>
<g>
	<g>
		<path d="M351.899,334.4l-14.56-145.568C335.707,172.384,322.011,160,305.531,160h-99.04c-16.512,0-30.208,12.384-31.84,28.8
			l-14.56,145.6c-0.448,4.512,1.024,8.96,4.064,12.352c3.008,3.328,7.328,5.248,11.84,5.248h17.504l13.12,131.2
			c1.632,16.384,15.36,28.8,31.872,28.8h35.04c16.512,0,30.208-12.416,31.84-28.8l13.12-131.2h17.504
			c4.544,0,8.832-1.92,11.872-5.248C350.907,343.392,352.379,338.912,351.899,334.4z"/>
	</g>
</g>
<g>
</g>
<g>
</g>
<g>
</g>
<g>
</g>
<g>
</g>
<g>
</g>
<g>
</g>
<g>
</g>
<g>
</g>
<g>
</g>
<g>
</g>
<g>
</g>
<g>
</g>
<g>
</g>
<g>
</g>
</svg>
