<?xml version="1.0" encoding="iso-8859-1"?>
<!-- Generator: Adobe Illustrator 19.0.0, SVG Export Plug-In . SVG Version: 6.00 Build 0)  -->
<svg version="1.1" id="Capa_1" xmlns="http://www.w3.org/2000/svg" xmlns:xlink="http://www.w3.org/1999/xlink" x="0px" y="0px"
	 viewBox="0 0 512 512" style="enable-background:new 0 0 512 512;" xml:space="preserve">
<g>
	<g>
		<circle cx="256" cy="64" r="64"/>
	</g>
</g>
<g>
	<g>
		<path d="M326.176,320H336c4.608,0,8.96-1.984,12-5.408c3.04-3.424,4.448-8.032,3.872-12.608l-14.368-113.408
			C335.584,172.288,321.888,160,305.6,160h-99.2c-16.288,0-29.984,12.288-31.872,28.384l-14.4,113.6
			c-0.576,4.576,0.832,9.152,3.872,12.608c3.04,3.456,7.392,5.408,12,5.408h9.824l-24.992,74.944
			c-1.632,4.864-0.832,10.24,2.208,14.4c2.976,4.192,7.808,6.656,12.96,6.656h18.432l11.552,69.248
			C208.576,500.736,221.856,512,237.568,512h36.864c15.712,0,28.992-11.264,31.552-26.752L317.568,416H336
			c5.152,0,9.984-2.464,12.96-6.656c3.04-4.16,3.84-9.536,2.208-14.432L326.176,320z"/>
	</g>
</g>
<g>
</g>
<g>
</g>
<g>
</g>
<g>
</g>
<g>
</g>
<g>
</g>
<g>
</g>
<g>
</g>
<g>
</g>
<g>
</g>
<g>
</g>
<g>
</g>
<g>
</g>
<g>
</g>
<g>
</g>
</svg>
